<svg width="16" height="16" viewBox="0 0 16 16" fill="none" xmlns="http://www.w3.org/2000/svg">
<path d="M3.83325 12.6667C3.68881 12.6667 3.56936 12.6195 3.47492 12.525C3.38047 12.4306 3.33325 12.3111 3.33325 12.1667C3.33325 12.0222 3.38047 11.9028 3.47492 11.8084C3.56936 11.7139 3.68881 11.6667 3.83325 11.6667H12.1666C12.311 11.6667 12.4305 11.7139 12.5249 11.8084C12.6194 11.9028 12.6666 12.0222 12.6666 12.1667C12.6666 12.3111 12.6194 12.4306 12.5249 12.525C12.4305 12.6195 12.311 12.6667 12.1666 12.6667H3.83325ZM6.54992 7.26669H9.44992L8.03325 3.56669H7.96659L6.54992 7.26669ZM5.28325 10C5.10547 10 4.98881 9.94169 4.93325 9.82502C4.8777 9.70835 4.8777 9.56669 4.93325 9.40002L7.26659 3.18335C7.32214 3.03891 7.41936 2.91669 7.55825 2.81669C7.69714 2.71669 7.84436 2.66669 7.99992 2.66669C8.15547 2.66669 8.3027 2.71669 8.44159 2.81669C8.58047 2.91669 8.6777 3.03891 8.73325 3.18335L11.0666 9.40002C11.1221 9.56669 11.1221 9.70835 11.0666 9.82502C11.011 9.94169 10.8944 10 10.7166 10C10.6277 10 10.5471 9.97502 10.4749 9.92502C10.4027 9.87502 10.3555 9.81669 10.3333 9.75002L9.68325 8.01669H6.29992L5.64992 9.75002C5.6277 9.81669 5.58047 9.87502 5.50825 9.92502C5.43603 9.97502 5.36103 10 5.28325 10Z" fill="#DC0A2D"/>
</svg>
